<svg width="16" height="16" viewBox="0 0 16 16" fill="none" xmlns="http://www.w3.org/2000/svg">
<path d="M12.4467 12.4467L13.9267 11.7067V9.85337M9.48 6.52004L8 7.26004M8 7.26004L6.52 6.52004M8 7.26004V9.11337M13.9267 4.29337L12.4467 5.03337M13.9267 4.29337L12.4467 3.55337M13.9267 4.29337V6.14671M2.07333 4.29337L3.55333 3.55337M2.07333 4.29337L3.55333 5.03337M2.07333 4.29337V6.14671M8 14.6667L6.52 13.9267M8 14.6667L9.48 13.9267M8 14.6667V12.8134M9.48 2.07337L8 1.33337L6.52 2.07337H9.48ZM3.55333 12.4467L2.07333 11.7067V9.85337L3.55333 12.4467Z" stroke="#696969" stroke-width="1.5" stroke-linecap="round" stroke-linejoin="round"/>
</svg>
