<svg width="16" height="16" viewBox="0 0 16 16" fill="none" xmlns="http://www.w3.org/2000/svg">
<g clip-path="url(#clip0_13_409)">
<path d="M14.6667 8.66671V6.00004C14.6667 2.66671 13.3333 1.33337 10 1.33337H6C2.66667 1.33337 1.33334 2.66671 1.33334 6.00004V10C1.33334 13.3334 2.66667 14.6667 6 14.6667H8.66667" stroke="#696969" stroke-width="1.5" stroke-linecap="round" stroke-linejoin="round"/>
<path d="M14.6667 8.66671V6.00004C14.6667 2.66671 13.3333 1.33337 10 1.33337H6C2.66667 1.33337 1.33334 2.66671 1.33334 6.00004V10C1.33334 13.3334 2.66667 14.6667 6 14.6667H8.66667" stroke="#696969" stroke-width="1.5" stroke-linecap="round" stroke-linejoin="round"/>
<path d="M14.6667 8.66671V6.00004C14.6667 2.66671 13.3333 1.33337 10 1.33337H6C2.66667 1.33337 1.33334 2.66671 1.33334 6.00004V10C1.33334 13.3334 2.66667 14.6667 6 14.6667H8.66667M10.6667 12.9534L11.72 14L14 11.3334M4.66667 7.00004V9.00004M8 7.00004V9.00004M11.3333 7.00004V9.00004" stroke="#696969" stroke-width="1.5" stroke-linecap="round" stroke-linejoin="round"/>
</g>
<defs>
<clipPath id="clip0_13_409">
<rect width="16" height="16" fill="white"/>
</clipPath>
</defs>
</svg>
