<svg width="16" height="16" viewBox="0 0 16 16" fill="none" xmlns="http://www.w3.org/2000/svg">
<g clip-path="url(#clip0_13_404)">
<path d="M14.6667 14.6667L13.3333 13.3334M7.66667 14C8.49837 14 9.32193 13.8362 10.0903 13.5179C10.8587 13.1997 11.5569 12.7332 12.145 12.145C12.7331 11.5569 13.1996 10.8588 13.5179 10.0904C13.8362 9.32197 14 8.49841 14 7.66671C14 6.835 13.8362 6.01144 13.5179 5.24305C13.1996 4.47465 12.7331 3.77647 12.145 3.18836C11.5569 2.60026 10.8587 2.13375 10.0903 1.81547C9.32193 1.49719 8.49837 1.33337 7.66667 1.33337C5.98696 1.33337 4.37605 2.00063 3.18832 3.18836C2.00059 4.37609 1.33333 5.987 1.33333 7.66671C1.33333 9.34641 2.00059 10.9573 3.18832 12.145C4.37605 13.3328 5.98696 14 7.66667 14Z" stroke="#696969" stroke-width="1.5" stroke-linecap="round" stroke-linejoin="round"/>
</g>
<defs>
<clipPath id="clip0_13_404">
<rect width="16" height="16" fill="white"/>
</clipPath>
</defs>
</svg>
