<svg width="17" height="17" viewBox="0 0 17 17" fill="none" xmlns="http://www.w3.org/2000/svg">
<path d="M14.5846 15.5833C14.5846 12.842 11.8575 10.625 8.5 10.625C5.1425 10.625 2.41542 12.842 2.41542 15.5833M8.5 8.49996C9.43931 8.49996 10.3401 8.12682 11.0043 7.46263C11.6685 6.79844 12.0417 5.8976 12.0417 4.95829C12.0417 4.01898 11.6685 3.11815 11.0043 2.45396C10.3401 1.78976 9.43931 1.41663 8.5 1.41663C7.5607 1.41663 6.65986 1.78976 5.99567 2.45396C5.33148 3.11815 4.95834 4.01898 4.95834 4.95829C4.95834 5.8976 5.33148 6.79844 5.99567 7.46263C6.65986 8.12682 7.5607 8.49996 8.5 8.49996Z" stroke="#696969" stroke-width="1.5" stroke-linecap="round" stroke-linejoin="round"/>
</svg>
